# xmcd
#
# Track frame offsets:
# 150
# 19570
# 38432
# 54928
# 70103
# 87751
# 103936
# 122680
# 140555
# 159351
# 173624
# 194447
#
# Disc length: 2831 seconds
#
#
# Revision: 0
# Processed by: cddbd v1.5.2PL0 Copyright (c) Steve Scherf et al.
# Submitted via: FreeRIP 2.945 
#
DISCID=900b0d0c
DTITLE=Luca and Giancarlo - Faz Amor Comigo...Faz
DYEAR=1900
DGENRE=Sertanejo
TTITLE0=Faz Amor Comigo...Faz
TTITLE1=Teu Olhar
TTITLE2=Gosto Tanto de Você
TTITLE3=Vá
TTITLE4=Pra Pensar Em Nós Dois
TTITLE5=No Amor
TTITLE6=Preciso de Você
TTITLE7=Disfarça
TTITLE8=Paro (Part. Esp. Anderson Costa)
TTITLE9=Rejeitado
TTITLE10=Amiga
TTITLE11=Faz Amor Comigo...Faz Remix
EXTD=
EXTT0=
EXTT1=
EXTT2=
EXTT3=
EXTT4=
EXTT5=
EXTT6=
EXTT7=
EXTT8=
EXTT9=
EXTT10=
EXTT11=
PLAYORDER=
